<?xml version="1.0" encoding="UTF-8" standalone="no"?>
<!-- Created with Inkscape (http://www.inkscape.org/) -->

<svg
   xmlns:dc="http://purl.org/dc/elements/1.1/"
   xmlns:cc="http://creativecommons.org/ns#"
   xmlns:rdf="http://www.w3.org/1999/02/22-rdf-syntax-ns#"
   xmlns:svg="http://www.w3.org/2000/svg"
   xmlns="http://www.w3.org/2000/svg"
   xmlns:sodipodi="http://sodipodi.sourceforge.net/DTD/sodipodi-0.dtd"
   xmlns:inkscape="http://www.inkscape.org/namespaces/inkscape"
   id="svg5887"
   version="1.1"
   inkscape:version="0.48.4 r9939"
   width="880"
   height="865"
   xml:space="preserve"
   sodipodi:docname="IsirLogo.svg"><metadata
     id="metadata5893"><rdf:RDF><cc:Work
         rdf:about=""><dc:format>image/svg+xml</dc:format><dc:type
           rdf:resource="http://purl.org/dc/dcmitype/StillImage" /><dc:title /></cc:Work></rdf:RDF></metadata><defs
     id="defs5891" /><sodipodi:namedview
     pagecolor="#ffffff"
     bordercolor="#666666"
     borderopacity="1"
     objecttolerance="10"
     gridtolerance="10"
     guidetolerance="10"
     inkscape:pageopacity="0"
     inkscape:pageshadow="2"
     inkscape:window-width="1920"
     inkscape:window-height="1018"
     id="namedview5889"
     showgrid="false"
     inkscape:zoom="1.08"
     inkscape:cx="442.74074"
     inkscape:cy="400.79675"
     inkscape:window-x="1272"
     inkscape:window-y="-8"
     inkscape:window-maximized="1"
     inkscape:current-layer="g5895" /><g
     id="g5895"
     inkscape:groupmode="layer"
     inkscape:label="ink_ext_XXXXXX"
     transform="matrix(1.25,0,0,-1.25,0,865)"><g
       id="g5897"
       transform="matrix(0.1,0,0,0.1,-840,-22.4)"><path
         d="m 12820.7,7144 64.5,0 c 59.5,-12.9 118.9,-35.9 160.6,-82.1 59.2,-62.5 87.4,-157 62,-240.4 -28.7,-136.4 -181.7,-228.8 -316.3,-193.5 -94.5,22.8 -170.8,102.6 -191.1,197.4 -6.7,37.1 -3.6,75.1 -5.1,112.6 -173.1,39.7 -350,60.7 -526.9,74.1 -130.2,0.6 -260.4,-0.2 -390.6,0.3 -277,-14.8 -552.3,-63.8 -817.5,-145.6 -1.5,-74 9.5,-155.8 -37,-219.5 -39.7,-50.7 -89.6,-100.2 -154.7,-114.4 -92.4,-28.6 -201.9,3.6 -262.8,79 -16.3,15.8 -25,42 -46.9,50.2 -67.2,-25.3 -126.7,-66.8 -190.5,-99.1 -161.3,-94.2 -315.2,-201.2 -459.3,-320.2 -122,-97.1 -228.2,-211.7 -338.498,-321.5 -413.903,-451.4 -705.102,-1016.1 -823.5004,-1617.5 -31.9024,-161.5 -56.3008,-325.5 -59.2032,-490.3 -14,-99.3 -7.6992,-200.2 -6.7968,-300.2 11.5,-62.6 5.1992,-126.4 14.1992,-189.2 24.3984,-275.8 83.8982,-548.6 177.8012,-809.1 -3.5,-13 -7.903,-26 -12.704,-38.7 -17.699,54.7 -34.5,109.8 -59.097,161.9 -74.0002,236.5 -119.6018,481.9 -139.1018,728.9 C 8448,3439.9 8466.5,3515.2 8448,3587.2 l 0,102.1 c 13.6992,47 6.8008,96.1 8.3008,144.1 18.8984,273.1 63.5,545.4 145.3982,807 119.199,387.1 307.903,753 555.801,1073.4 89.301,119.6 192.801,227.3 293,337.6 19.8,20.2 42,37.9 63.5,56.2 246.1,239.1 532.8,434.8 839,588.6 -23.1,88.1 -14,192.3 51.4,260.7 63.5,73.3 171.4,107.1 264.7,78.3 74.2,-19.6 137.3,-72.1 171,-141 58.2,11.3 114.1,32 171.8,45.8 205,49.8 413.9,87.6 624.8,98 116.5,15.5 234.5,4.2 351.6,7.9 206.6,-11.2 413.4,-34 615.4,-80.6 21.6,46.5 46.5,94.2 89.8,124.1 35.6,31.4 82.4,43 127.2,54.6"
         style="fill:#072638;fill-opacity:1;fill-rule:nonzero;stroke:none"
         id="path5901"
         inkscape:connector-curvature="0" /><path
         d="m 11551.9,5629 c 179.8,50 381,20.1 537,-82.9 44.4,-31.4 97.3,-62.5 112.7,-118.7 11,-52.5 7.9,-114.9 -31.5,-155.6 -46.9,-53.7 -129.6,-57.9 -191.9,-31.4 -70.9,64.3 -162.8,107.2 -259.7,105.8 -90.3,-7.5 -180.2,-44.4 -240.4,-113.9 -65.7,-68.4 -100.9,-166.3 -90.9,-260.8 9.7,-66.4 77.5,-95.9 133.8,-114.8 187.8,-59.1 389.8,-61.6 573.4,-135.8 117.4,-44.5 223.6,-134.8 264.4,-256.1 48.9,-148.7 19.6,-313.3 -48.5,-451 -109.6,-211.5 -341.6,-358.5 -582,-348.1 -167.1,-8 -331.3,64.4 -452.3,177.2 -28.7,29.3 -48.9,68.9 -46.4,110.7 -6.7,92.3 86.3,174.1 177.1,156.8 51.7,-4.7 84.6,-47.6 124.4,-75.3 92.7,-64.9 218.7,-84.4 323.9,-39.1 137.2,52.1 233.2,200.2 215.7,347.2 -8.2,53.5 -61.1,79.6 -106.4,96.8 -154.7,52.3 -319.5,61.1 -476.6,103.5 -82,25.6 -167.1,50.1 -236.3,103.3 -89.8,61.1 -150.9,161.2 -169.3,267.8 -4.4,49.8 -1.9,100.1 -2,150.1 17.8,263.2 219.4,495.5 471.8,564.3"
         style="fill:#0290cd;fill-opacity:1;fill-rule:nonzero;stroke:none"
         id="path5905"
         inkscape:connector-curvature="0" /><path
         d="m 13777.6,5623.6 c 81.4,25.3 167.1,18.4 251,17.9 251.5,-27.3 477,-215.5 546.9,-459.1 57.4,-191.5 23.6,-408.3 -93,-571.1 45.3,-89.3 106.7,-170 157.4,-256.5 85.1,-134.4 170,-268.9 255.4,-403.2 20.3,-33.5 50.8,-65.4 50.8,-107 0,-34.7 5.4,-72.9 -14.3,-103.8 -27.5,-51.1 -85.4,-83.8 -143.8,-75.4 -61.8,-6.3 -107,43.5 -137.4,90.6 -164,262.2 -330.6,522.8 -495.3,784.6 -24.3,39.9 -33.5,90.3 -15.1,134.4 15.1,54.5 68.2,83.4 96.5,129.6 86.4,124.7 71.5,306.4 -30.5,417.6 -61.5,65.7 -147.6,110.3 -238.2,114.4 -192.3,16.1 -374.5,-158.8 -362.4,-352.3 0.8,-390.2 -0.1,-780.3 0.5,-1170.4 0.7,-24.3 -6.4,-47.7 -13.4,-70.8 -29.4,-44.7 -77.9,-82.1 -134.1,-77.8 -79.4,-9.3 -157.8,58.2 -158.5,138.3 -0.2,420.4 -0.1,840.7 -0.1,1261.1 23,261.3 222.9,495.4 477.6,558.9"
         style="fill:#0290cd;fill-opacity:1;fill-rule:nonzero;stroke:none"
         id="path5907"
         inkscape:connector-curvature="0" /><path
         d="m 10527,5208.9 c 56.8,26.1 127.5,23.4 174.2,-21.5 41.4,-31.2 55.6,-83.8 58.4,-133.3 1,-373.4 -1.4,-746.8 0.1,-1120.1 -1.6,-66.1 9.9,-136.9 -24.6,-197.2 -43.4,-93.1 -186.4,-100.6 -250.5,-25.6 -21.7,25.4 -38.5,57.7 -38.4,91.8 -0.2,60.3 0.3,120.7 0.2,181 -0.1,83.3 -0.1,166.7 0,250 -0.1,106.7 -0.1,213.3 0,320 -0.1,26.7 -0.1,53.4 0,80 -0.1,113.3 -0.2,226.7 0,340 1.3,57.3 -7.9,117 16.4,171 17.5,25.1 39,46.8 64.2,63.9"
         style="fill:#072638;fill-opacity:1;fill-rule:nonzero;stroke:none"
         id="path5909"
         inkscape:connector-curvature="0" /><path
         d="m 12706.4,5094.9 c 8.3,89.9 110.3,153.7 195.2,123.6 63.8,-15 111.9,-79.3 108.4,-144.6 -0.6,-153.3 -0.1,-306.6 -0.3,-459.9 -0.1,-23.3 -0.1,-46.6 0,-70 0,-173.3 0.1,-346.7 0,-520 -0.1,-70.3 0.2,-140.5 0.1,-210.8 0.7,-27.8 -8,-54.5 -16.5,-80.6 -30.4,-28.1 -58.3,-68.3 -103.7,-70.1 -38,-0.3 -81.4,-6.8 -113.1,18.8 -28.5,24.9 -61.2,51.5 -68.9,90.6 -5.9,60.5 6.6,121 -0.7,181.4 -1.4,196.9 -0.2,393.8 -0.5,590.7 -0.1,33.4 -0.1,66.7 0,100 0,150.3 -0.3,300.6 0,450.9"
         style="fill:#072638;fill-opacity:1;fill-rule:nonzero;stroke:none"
         id="path5911"
         inkscape:connector-curvature="0" /><path
         d="m 15049.9,3332 c 65.4,63 164.9,76.9 250.4,54.9 58.5,-13.4 102.8,-58 141.7,-101.1 21.3,-38.4 34.8,-80.3 46,-122.6 l 0,-47 c -13.5,-54.8 -31.2,-111.4 -73.8,-151.2 -33.8,-21.9 -63.7,-50.9 -101.9,-65.3 -39.9,-13.7 -82.3,-16.7 -123.9,-21.4 -8.1,-16.9 -16.3,-33.7 -24.3,-50.7 0.2,19.5 0.5,39 0.9,58.4 -23.1,8.2 -46.3,15.8 -69.2,24.1 -74.7,44.5 -128.6,126.6 -129.9,214.9 -5.2,77.1 24.9,156.4 84,207"
         style="fill:#072638;fill-opacity:1;fill-rule:nonzero;stroke:none"
         id="path5931"
         inkscape:connector-curvature="0" /><path
         d="m 15442,3285.8 c 18.8,-21.9 34.6,-46.4 46,-73.1 l 0,-49.5 c -11.2,42.3 -24.7,84.2 -46,122.6"
         style="fill:#c6d0d5;fill-opacity:1;fill-rule:nonzero;stroke:none"
         id="path5933"
         inkscape:connector-curvature="0" /><path
         d="m 15414.2,2965 c 42.6,39.8 60.3,96.4 73.8,151.2 l 0,-55.8 c -14.8,-31.7 -33,-62.6 -59.6,-85.7 l -14.2,-9.7"
         style="fill:#c6d0d5;fill-opacity:1;fill-rule:nonzero;stroke:none"
         id="path5935"
         inkscape:connector-curvature="0" /><path
         d="m 15312.3,2899.7 c 38.2,14.4 68.1,43.4 101.9,65.3 l 14.2,9.7 c -27,-25.6 -52.2,-54.6 -86.1,-71.2 -45.7,-25.5 -99.4,-29.5 -150.5,-33.2 -10,-37.1 -19.3,-74.4 -30.2,-111.3 -4.3,19.5 -10,38.7 -14.7,57.8 3.4,22.1 6.8,44.2 9.3,66.3 -20.5,8.4 -40.8,16.9 -60.4,27 22.9,-8.3 46.1,-15.9 69.2,-24.1 -0.4,-19.4 -0.7,-38.9 -0.9,-58.4 8,17 16.2,33.8 24.3,50.7 41.6,4.7 84,7.7 123.9,21.4"
         style="fill:#3a515d;fill-opacity:1;fill-rule:nonzero;stroke:none"
         id="path5939"
         inkscape:connector-curvature="0" /><path
         d="m 14670.6,1752.6 c 220.4,322.9 378.6,686.1 476.3,1064.2 4.7,-19.1 10.4,-38.3 14.7,-57.8 -113.4,-423.7 -307.8,-825.8 -573.4,-1175.1 -438.5,-582.502 -1067.9,-1019.701 -1769,-1221.701 -219.7,-64.5974 -446.5,-103.5974 -674.4,-123.9998 -66.2,-13.39842 -134.8,3.5 -200.2,-14.1992 l -162.3,0 c -57.2,16.3984 -117.1,2.89844 -175.2,10.8984 -49.2,7.2032 -98.9,9.3008 -148.1,16.2032 -388.5,44.7968 -768,159.1994 -1118.6,331.7964 C 9991.1,759.5 9671.5,994.301 9400,1276.2 c -195,206.6 -368.801,434.3 -507.699,682.5 -41.301,76.2 -86.5,150.6 -119.102,231.2 -32.398,70.3 -66.5,140.2 -90.699,213.9 -1,19.5 -4.801,39.6 2.301,58.4 4.801,-8.1 14.199,-24.5 18.898,-32.6 116.5,-308.1 281.301,-597.2 481.699,-858.4 60.403,-81.9 130.903,-155.5 196.204,-233.4 C 9671.8,1027.898 10018.8,771.5 10401.4,587.199 10779.2,407.5 11190,295 11607.7,265.8984 c 60.6,2.5 120,-13.5 180.6,-10.3984 89.8,2.3008 180.2,-5.6992 269.4,8.3008 148.3,3.3984 295.8,25.1992 441.7,51.5 C 13375.8,480.398 14177.6,1009 14670.6,1752.6"
         style="fill:#072638;fill-opacity:1;fill-rule:nonzero;stroke:none"
         id="path5967"
         inkscape:connector-curvature="0" /><path
         d="m 8601.301,2638.2 c 24.597,-52.1 41.398,-107.2 59.097,-161.9 4.801,12.7 9.204,25.7 12.704,38.7 10.199,-28.5 20.097,-57 30.597,-85.4 -4.699,8.1 -14.097,24.5 -18.898,32.6 -7.102,-18.8 -3.301,-38.9 -2.301,-58.4 -42.602,70.9 -58.801,154.9 -81.199,234.4"
         style="fill:#3a515d;fill-opacity:1;fill-rule:nonzero;stroke:none"
         id="path5971"
         inkscape:connector-curvature="0" /></g><text
       xml:space="preserve"
       style="font-size:40.04473114px;font-style:normal;font-variant:normal;font-weight:normal;font-stretch:normal;line-height:132.00000525%;letter-spacing:0px;word-spacing:0px;fill:#072638;fill-opacity:1;stroke:none;font-family:'Magnolia ';-inkscape-font-specification:'Magnolia '"
       x="225.95148"
       y="-249.56018"
       id="text3049"
       sodipodi:linespacing="132.00001%"
       transform="scale(0.89575756,-1.1163735)"><tspan
         sodipodi:role="line"
         id="tspan3051"
         x="225.95148"
         y="-249.56018"
         style="line-height:132.00000525%;fill:#072638;fill-opacity:1">INSTITUT</tspan><tspan
         sodipodi:role="line"
         x="225.95148"
         y="-196.70114"
         id="tspan3053">DES SYSTÈMES</tspan><tspan
         sodipodi:role="line"
         x="225.95148"
         y="-143.84207"
         id="tspan3055">INTELLIGENTS</tspan><tspan
         sodipodi:role="line"
         x="225.95148"
         y="-90.983025"
         id="tspan3057">ET DE ROBOTIQUE</tspan></text>
</g></svg>